<svg xmlns="http://www.w3.org/2000/svg" width="20" height="21" viewBox="0 0 3454 3581" preserveAspectRatio="xMidYMid" fill-rule="evenodd" stroke-width="28.222" stroke-linejoin="round" xmlns:v="https://vecta.io/nano"><defs><clipPath id="A"><path d="M0 0h3454v3581H0z"/></clipPath><path id="B" d="M2683 952c0 167-44 332-128 477-83 144-204 265-348 348-145 84-310 128-477 128s-332-44-476-128c-145-83-266-204-349-348-84-145-128-310-128-477s44-332 128-476c83-145 204-266 348-349C1398 43 1563-1 1730-1s332 44 476 128c145 83 266 204 349 348 84 145 128 310 128 477h0z"/><path id="C" d="M3454 2628c0 167-44 332-128 477-83 144-204 265-348 348-145 84-310 128-477 128s-332-44-476-128c-145-83-266-204-349-348-84-145-128-310-128-477s44-332 128-476c83-145 204-266 348-349 145-84 310-128 477-128s332 44 476 128c145 83 266 204 349 348 84 145 128 310 128 477h0z"/><path id="D" d="M1905 2628c0 167-44 332-128 477-83 144-204 265-348 348-145 84-310 128-477 128s-332-44-476-128c-145-83-266-204-349-348C43 2960-1 2795-1 2628s44-332 128-476c83-145 204-266 348-349 145-84 310-128 477-128s332 44 476 128c145 83 266 204 349 348 84 145 128 310 128 477h0z"/></defs><g clip-path="url(#A)"><use href="#B" fill="#fff"/><use href="#B" fill="none" stroke="#fff"/><use href="#C" fill="#fff"/><use href="#C" fill="none" stroke="#fff"/><use href="#D" fill="#fff"/><use href="#D" fill="none" stroke="#fff"/></g></svg>