<svg xmlns="http://www.w3.org/2000/svg" width="25" height="25" viewBox="0 0 7620 7620" preserveAspectRatio="xMidYMid" fill-rule="evenodd" stroke-width="28.222" stroke-linejoin="round" xmlns:v="https://vecta.io/nano"><defs><clipPath id="A"><path d="M0 0h7620v7620H0z"/></clipPath></defs><g clip-path="url(#A)" fill="none" stroke="#f15f04" stroke-width="762"><path d="M0 358h2540"/><path d="M0 358h2540m-24-1h2540"/><path d="M4645 2808L4668 0M0 358h2540"/><path d="M376 2540V0m6842 2808L7240 0m0 7620l7-2828M375 7620V5080m2141 2157h2540"/><path d="M0 7238h2540m2157 382l-22-2828M0 2430h2540"/><path d="M0 5091h2540m-385-1V2550m2549 2629h2540M4836 2431h2540"/></g></svg>