<svg xmlns="http://www.w3.org/2000/svg" width="25" height="25" viewBox="0 0 10160 10160" preserveAspectRatio="xMidYMid" fill-rule="evenodd" stroke-width="28.22" stroke-linejoin="round" xmlns:v="https://vecta.io/nano"><defs><clipPath id="A"><path d="M0 0h10160v10160H0z"/></clipPath></defs><g clip-path="url(#A)" fill="none" stroke="#f15f04" stroke-width="1016"><path d="M2919 1668h4318m1280 5594V2944M252 8398l1500-1500m7996-4534L8132 748M1813 9889l1474-1474"/><path d="M2919 8568h4318M1617 7262V2944m6740 364l1527-1527M2277 9689L661 8073m6215-6257L8403 289M3280 1819L1780 319"/><path d="M1768 3307L268 1807"/><path d="M598 2216L2199 615m6166 9295L6865 8410m3004-19L8369 6891"/><path d="M7964 9589l1601-1601"/></g></svg>