<svg xmlns="http://www.w3.org/2000/svg" width="19.994" height="19.994" viewBox="0 0 529 529" preserveAspectRatio="xMidYMid" fill-rule="evenodd" stroke-width="28.222" stroke-linejoin="round"><defs><clipPath id="A"><path d="M0 0h529v529H0z"/></clipPath></defs><g clip-path="url(#A)"><defs><clipPath id="B"><path d="M-60 1h528v528H-60V1z"/></clipPath></defs><g clip-path="url(#B)"><path fill="#fff" d="M119 1c27 0 49 22 49 49v551c0 27-22 49-49 49-26 0-47-22-47-49V50c0-27 21-49 47-49h0zm291 0c27 0 47 22 47 49v551c0 27-20 49-47 49s-49-22-49-49V50c0-27 22-49 49-49h0z"/></g></g></svg>
